<svg xmlns="http://www.w3.org/2000/svg" width="30.7" height="28.715" viewBox="0 0 30.7 28.715">
  <path id="Calendar-Icon-987yghj" d="M14.86,20.3a7.42,7.42,0,1,1,7.434,7.414h-.021A7.381,7.381,0,0,1,14.86,20.3Zm1.968-.059a5.45,5.45,0,1,0,5.513-5.392h-.051A5.47,5.47,0,0,0,16.827,20.236Zm-13.9,6.485A2.922,2.922,0,0,1,.164,24.689,3.178,3.178,0,0,1,0,23.665Q.005,14.833,0,6A3.011,3.011,0,0,1,2.709,2.973c.191-.025.277.025.269.244-.017.474-.008.948,0,1.423A2.364,2.364,0,0,0,4.3,6.84a2.334,2.334,0,0,0,2.586-.172A2.353,2.353,0,0,0,7.922,4.673c0-.485.006-.969,0-1.454,0-.177.029-.256.233-.254q1.253.017,2.506,0c.2,0,.242.067.238.25-.011.474-.006.948,0,1.423a2.368,2.368,0,0,0,1.322,2.2A2.336,2.336,0,0,0,14.8,6.669a2.354,2.354,0,0,0,1.04-1.994c0-.485.01-.97,0-1.454-.007-.21.067-.257.264-.255q1.236.014,2.474,0c.2,0,.244.063.239.248-.011.474-.006.949,0,1.423a2.37,2.37,0,0,0,1.322,2.2,2.336,2.336,0,0,0,2.586-.17,2.358,2.358,0,0,0,1.042-1.994c0-.485.01-.969,0-1.453-.007-.209.061-.277.262-.25A3.012,3.012,0,0,1,26.73,6q.005,3.2,0,6.4v.272a10.009,10.009,0,0,0-1.536-.684.514.514,0,0,1-.452-.642c.036-.409,0-.824.011-1.237,0-.159-.045-.233-.21-.211a1.173,1.173,0,0,1-.154,0q-11.012,0-22.025-.007c-.3,0-.392.059-.391.381q.018,6.682,0,13.363a1.093,1.093,0,0,0,1.134,1.122c2.318-.014,4.637-.014,6.956-.013q2.12,0,4.242,0a.55.55,0,0,1,.566.291,9.427,9.427,0,0,0,1.306,1.637c-.008.071-.048.056-.074.056q-3.571,0-7.141,0Q5.944,26.732,2.926,26.721ZM19.7,23.047a.386.386,0,0,1,.019-.536c.472-.581.941-1.164,1.426-1.732a.975.975,0,0,0,.255-.547c.071-.795.124-1.591.194-2.385.048-.548.117-1.1.175-1.643.028-.273.212-.35.449-.365a.472.472,0,0,1,.554.327,4.308,4.308,0,0,1,.1.912c.1.8.136,1.609.2,2.415.037.427.091.853.138,1.28a.926.926,0,0,1-.439.859c-.715.514-1.41,1.056-2.109,1.591a.705.705,0,0,1-.417.178C20.053,23.4,19.894,23.248,19.7,23.047Zm-7.821-.279c-.484,0-.968,0-1.451,0a.474.474,0,0,1-.529-.534q-.006-.957,0-1.914a.467.467,0,0,1,.512-.519q1.467-.008,2.933,0a.468.468,0,0,1,.513.519q.008.956,0,1.913a.474.474,0,0,1-.527.536l-.558,0Zm-7.386,0a.476.476,0,0,1-.533-.531c0-.637,0-1.276,0-1.913A.474.474,0,0,1,4.5,19.8q1.435-.005,2.87,0a.48.48,0,0,1,.548.546q.005.941,0,1.883c0,.366-.181.537-.555.54-.473,0-.946,0-1.419,0H5.054Zm5.919-3.961a.467.467,0,0,1-.512-.519q-.008-.957,0-1.914a.474.474,0,0,1,.529-.534c.493,0,.987,0,1.481,0,.474,0,.946,0,1.42,0a.474.474,0,0,1,.527.535q.006.957,0,1.914a.467.467,0,0,1-.513.518q-.733,0-1.466,0T10.415,18.807Zm-5.938,0a.467.467,0,0,1-.513-.518c-.005-.638,0-1.276,0-1.914a.474.474,0,0,1,.528-.535c.484,0,.967,0,1.451,0s.968,0,1.451,0a.475.475,0,0,1,.529.534c0,.638,0,1.276,0,1.914a.467.467,0,0,1-.512.519q-.733,0-1.466,0T4.477,18.807Zm5.984-3.958c-.387,0-.557-.176-.559-.568,0-.617,0-1.234,0-1.852a.48.48,0,0,1,.545-.548q1.435,0,2.871,0c.368,0,.541.179.542.552,0,.627,0,1.255,0,1.883a.474.474,0,0,1-.53.533c-.311,0-.622,0-.933,0H10.461Zm-5.962,0a.474.474,0,0,1-.536-.527q-.006-.957,0-1.914A.474.474,0,0,1,4.5,11.88c.484,0,.967,0,1.451,0s.946,0,1.42,0a.481.481,0,0,1,.551.543q.005.942,0,1.883a.48.48,0,0,1-.552.542l-1.536,0Zm11.344-2.437c0-.314.162-.525.441-.527,1.157-.01,2.314,0,3.482.025a9.04,9.04,0,0,0-3.923,2.548C15.842,13.709,15.839,13.059,15.843,12.411Zm5.342-6.472A1.525,1.525,0,0,1,19.8,4.49q-.019-1.515,0-3.029a1.483,1.483,0,0,1,2.966.019c.007.495,0,.99,0,1.6a10.515,10.515,0,0,1-.06,1.726,1.5,1.5,0,0,1-1.417,1.135C21.257,5.943,21.221,5.942,21.184,5.939Zm-15.739,0A1.523,1.523,0,0,1,3.964,4.467c-.008-.505,0-1.009,0-1.631a11.164,11.164,0,0,1,.059-1.7A1.477,1.477,0,0,1,5.573.005,1.509,1.509,0,0,1,6.928,1.441c.014,1.02.016,2.041,0,3.06A1.512,1.512,0,0,1,5.447,5.939Zm7.8-.005A1.509,1.509,0,0,1,11.886,4.5q-.022-1.529,0-3.06a1.482,1.482,0,0,1,2.964.032c.008.5,0,1.009,0,1.634A11.259,11.259,0,0,1,14.793,4.8a1.478,1.478,0,0,1-1.434,1.14C13.32,5.939,13.282,5.938,13.243,5.934Z" transform="translate(0.5 0.506)" stroke="rgba(0,0,0,0)" stroke-miterlimit="10" stroke-width="1"/>
</svg>
